<?xml version="1.0" standalone="no"?>
<!DOCTYPE svg PUBLIC "-//W3C//DTD SVG 20010904//EN"
 "http://www.w3.org/TR/2001/REC-SVG-20010904/DTD/svg10.dtd">
<svg version="1.0" xmlns="http://www.w3.org/2000/svg"
 width="700.000000pt" height="700.000000pt" viewBox="0 0 700.000000 700.000000"
 preserveAspectRatio="xMidYMid meet">
<metadata>
Created by potrace 1.14, written by Peter Selinger 2001-2017
</metadata>
<g transform="translate(0.000000,700.000000) scale(0.100000,-0.100000)"
fill="#000000" stroke="none">
<path d="M3335 6965 c-55 -7 -125 -16 -155 -20 -30 -4 -77 -11 -105 -17 -27
-5 -63 -12 -80 -14 -16 -3 -93 -21 -170 -40 -426 -105 -784 -269 -1093 -502
-159 -120 -284 -241 -440 -427 -90 -109 -240 -356 -306 -505 -16 -36 -36 -83
-46 -105 -59 -135 -136 -413 -169 -610 -27 -161 -40 -299 -46 -479 -2 -76 -6
-141 -8 -143 -10 -9 -41 88 -53 162 -12 77 -12 363 0 430 3 17 8 48 10 70 3
22 7 50 10 61 2 12 7 38 10 58 5 31 16 82 32 149 2 9 6 26 9 38 11 50 71 233
108 329 90 230 242 502 393 703 24 31 42 57 40 57 -6 0 -78 -59 -159 -132
-289 -260 -473 -499 -585 -760 -122 -287 -153 -581 -96 -923 43 -257 154 -570
301 -844 l60 -113 47 97 c41 84 172 291 208 329 7 8 29 33 48 57 36 46 290
303 350 355 81 70 245 198 390 306 263 195 396 356 460 559 28 87 31 102 34
207 11 310 -187 585 -564 781 l-110 57 93 61 c284 187 788 381 1217 468 60 12
289 45 350 51 165 15 462 6 565 -16 22 -5 51 -11 65 -14 14 -3 39 -9 55 -12
52 -12 366 -220 475 -315 123 -107 157 -140 219 -213 83 -98 148 -198 185
-286 15 -36 31 -74 36 -85 5 -11 18 -61 28 -111 76 -361 -50 -791 -377 -1289
-36 -55 -71 -107 -78 -115 -6 -8 -46 -62 -89 -120 -78 -106 -195 -254 -249
-314 -5 -6 -25 -29 -44 -51 -44 -52 -163 -185 -224 -249 -170 -181 -291 -478
-331 -813 -14 -113 -16 -507 -3 -543 3 -8 8 -40 11 -70 3 -30 7 -64 10 -75 2
-11 7 -42 10 -69 4 -27 14 -79 23 -115 8 -36 16 -70 17 -76 13 -61 22 -94 46
-180 49 -168 124 -387 170 -490 10 -22 21 -50 25 -63 15 -51 16 -10 1 60 -54
248 -24 555 79 803 117 281 287 495 620 781 156 134 161 138 340 301 610 557
851 930 912 1418 10 77 9 470 -1 601 -9 117 0 135 38 77 36 -54 96 -238 121
-368 33 -178 40 -263 40 -495 0 -237 -6 -299 -36 -426 -62 -263 -191 -501
-433 -799 -37 -46 -224 -264 -236 -275 -3 -3 -39 -43 -80 -90 -41 -47 -77 -87
-80 -90 -77 -77 -240 -283 -324 -410 -42 -63 -80 -119 -84 -125 -26 -34 -146
-266 -205 -395 -71 -157 -174 -455 -194 -560 -2 -14 -8 -42 -12 -62 -11 -47 2
-65 51 -71 176 -22 800 210 1148 428 378 236 555 402 769 722 33 51 61 95 61
99 0 4 6 15 14 23 8 9 47 77 86 151 39 74 67 122 64 105 -8 -35 -50 -157 -69
-200 -7 -16 -23 -55 -36 -85 -33 -78 -112 -221 -176 -320 -170 -261 -431 -524
-703 -709 -166 -113 -397 -239 -550 -301 -30 -12 -64 -26 -75 -31 -131 -58
-531 -179 -670 -203 -200 -34 -203 -35 -337 -51 -223 -28 -533 -18 -786 26
-777 132 -1460 603 -2044 1409 -211 291 -474 761 -627 1120 -29 69 -59 139
-66 155 -58 134 -161 423 -220 620 -27 87 -41 120 -42 93 0 -7 -4 -51 -8 -98
-21 -250 -21 -593 1 -740 2 -19 7 -53 9 -75 13 -113 16 -132 20 -155 3 -14 7
-41 10 -60 3 -19 13 -64 21 -100 9 -36 17 -72 19 -80 16 -75 33 -133 67 -240
164 -514 444 -972 842 -1380 157 -161 254 -246 491 -428 86 -66 322 -205 473
-278 157 -76 439 -182 532 -199 14 -3 41 -9 60 -15 48 -14 219 -49 305 -61 39
-5 81 -11 95 -14 201 -31 749 -26 945 9 17 3 48 8 70 12 71 10 262 53 357 79
747 210 1404 710 1908 1455 93 136 246 433 315 610 116 297 196 645 222 970
15 182 8 665 -11 766 -2 11 -7 44 -10 75 -4 31 -9 67 -11 80 -3 13 -7 41 -10
62 -3 21 -9 57 -15 80 -5 23 -16 74 -25 112 -21 92 -39 155 -87 300 -296 904
-1064 1737 -1930 2091 -131 54 -317 116 -417 139 -157 37 -324 68 -431 80 -30
4 -66 9 -80 11 -68 12 -423 11 -515 -1z m3232 -4387 c-3 -8 -6 -5 -6 6 -1 11
2 17 5 13 3 -3 4 -12 1 -19z"/>
</g>
</svg>
